<?xml version="1.0" encoding="UTF-8"?><svg xmlns="http://www.w3.org/2000/svg" xmlns:xlink="http://www.w3.org/1999/xlink" fill-opacity="1" color-rendering="auto" color-interpolation="auto" text-rendering="auto" stroke="black" stroke-linecap="square" width="514" stroke-miterlimit="10" shape-rendering="auto" stroke-opacity="1" fill="black" stroke-dasharray="none" font-weight="normal" stroke-width="1" height="324" font-family="'Dialog'" font-style="normal" stroke-linejoin="miter" font-size="12px" stroke-dashoffset="0" image-rendering="auto">
  <!--Generated by ySVG 2.5-->
  <defs id="genericDefs"/>
  <g>
    <defs id="defs1">
      <linearGradient x1="834" gradientUnits="userSpaceOnUse" x2="914" y1="547" y2="597" id="linearGradient1" spreadMethod="reflect">
        <stop stop-opacity="1" stop-color="rgb(255,153,204)" offset="0%"/>
        <stop stop-opacity="1" stop-color="rgb(255,153,204)" offset="100%"/>
      </linearGradient>
      <linearGradient x1="844" gradientUnits="userSpaceOnUse" x2="904" y1="444" y2="484" id="linearGradient2" spreadMethod="reflect">
        <stop stop-opacity="1" stop-color="rgb(255,255,153)" offset="0%"/>
        <stop stop-opacity="1" stop-color="rgb(255,255,153)" offset="100%"/>
      </linearGradient>
      <linearGradient x1="672" gradientUnits="userSpaceOnUse" x2="752" y1="552" y2="592" id="linearGradient3" spreadMethod="reflect">
        <stop stop-opacity="1" stop-color="rgb(232,238,247)" offset="0%"/>
        <stop stop-opacity="1" stop-color="rgb(183,201,227)" offset="100%"/>
      </linearGradient>
      <linearGradient x1="672" gradientUnits="userSpaceOnUse" x2="752" y1="444" y2="484" id="linearGradient4" spreadMethod="reflect">
        <stop stop-opacity="1" stop-color="rgb(232,238,247)" offset="0%"/>
        <stop stop-opacity="1" stop-color="rgb(183,201,227)" offset="100%"/>
      </linearGradient>
      <clipPath clipPathUnits="userSpaceOnUse" id="clipPath1">
        <path d="M0 0 L514 0 L514 324 L0 324 L0 0 Z"/>
      </clipPath>
      <clipPath clipPathUnits="userSpaceOnUse" id="clipPath2">
        <path d="M570 392 L1084 392 L1084 716 L570 716 L570 392 Z"/>
      </clipPath>
    </defs>
    <g fill="white" text-rendering="geometricPrecision" shape-rendering="geometricPrecision" transform="translate(-570,-392)" stroke="white">
      <rect x="570" width="514" height="324" y="392" clip-path="url(#clipPath2)" stroke="none"/>
    </g>
    <g fill="rgb(245,245,245)" text-rendering="geometricPrecision" shape-rendering="geometricPrecision" transform="matrix(1,0,0,1,-570,-392)" stroke="rgb(245,245,245)">
      <rect x="585.4436" y="407.5391" clip-path="url(#clipPath2)" width="483.5564" rx="4" ry="4" height="293.4609" stroke="none"/>
      <rect x="585.4436" y="407.5391" clip-path="url(#clipPath2)" fill="rgb(235,235,235)" width="483.5564" height="21.4609" stroke="none"/>
    </g>
    <g font-size="15px" stroke-linecap="butt" transform="matrix(1,0,0,1,-570,-392)" text-rendering="geometricPrecision" font-family="sans-serif" shape-rendering="geometricPrecision" stroke-miterlimit="1.45">
      <text x="1011.6362" xml:space="preserve" y="423.4624" clip-path="url(#clipPath2)" stroke="none">Legend</text>
      <rect x="585.4436" y="407.5391" clip-path="url(#clipPath2)" fill="none" width="483.5564" stroke-dasharray="6,2" rx="4" ry="4" height="293.4609"/>
    </g>
    <g fill="url(#linearGradient1)" text-rendering="geometricPrecision" shape-rendering="geometricPrecision" transform="matrix(1,0,0,1,-570,-392)" stroke="url(#linearGradient1)">
      <path d="M844 573.5 C834 559.5 844 547 860.4 556 C860.4 547 887.6 547 887.6 556 C904 547 914 559.5 904 570.5 C914 584.5 904 597 891.6 588 C887.6 597 860.4 597 864.4 588 C844 597 834 584.5 844 573.5 Z" stroke="none" clip-path="url(#clipPath2)"/>
    </g>
    <g text-rendering="geometricPrecision" stroke-miterlimit="1.45" shape-rendering="geometricPrecision" transform="matrix(1,0,0,1,-570,-392)" stroke-linecap="butt">
      <path fill="none" d="M844 573.5 C834 559.5 844 547 860.4 556 C860.4 547 887.6 547 887.6 556 C904 547 914 559.5 904 570.5 C914 584.5 904 597 891.6 588 C887.6 597 860.4 597 864.4 588 C844 597 834 584.5 844 573.5 Z" clip-path="url(#clipPath2)"/>
      <text x="861.3818" xml:space="preserve" y="576.1543" clip-path="url(#clipPath2)" font-family="sans-serif" stroke="none">APIs</text>
    </g>
    <g fill="url(#linearGradient2)" text-rendering="geometricPrecision" shape-rendering="geometricPrecision" transform="matrix(1,0,0,1,-570,-392)" stroke="url(#linearGradient2)">
      <path d="M844 452 C845.8 444 902.2 444 904 452 L904 476 C902.2 484 845.8 484 844 476 Z" stroke="none" clip-path="url(#clipPath2)"/>
    </g>
    <g text-rendering="geometricPrecision" stroke-miterlimit="1.45" shape-rendering="geometricPrecision" transform="matrix(1,0,0,1,-570,-392)" stroke-linecap="butt">
      <path fill="none" d="M844 452 C845.8 444 902.2 444 904 452 L904 476 C902.2 484 845.8 484 844 476 Z" clip-path="url(#clipPath2)"/>
      <path fill="none" d="M904 452 C902.2 460 845.8 460 844 452" clip-path="url(#clipPath2)"/>
      <text x="865.2637" xml:space="preserve" y="468.1543" clip-path="url(#clipPath2)" font-family="sans-serif" stroke="none">DB</text>
    </g>
    <g fill="url(#linearGradient3)" text-rendering="geometricPrecision" shape-rendering="geometricPrecision" transform="matrix(1,0,0,1,-570,-392)" stroke="url(#linearGradient3)">
      <path d="M672 552 L752 552 L752 592 L672 592 Z" stroke="none" clip-path="url(#clipPath2)"/>
    </g>
    <g text-rendering="geometricPrecision" stroke-miterlimit="1.45" shape-rendering="geometricPrecision" transform="matrix(1,0,0,1,-570,-392)" stroke-linecap="butt">
      <path fill="none" d="M672 552 L752 552 L752 592 L672 592 Z" clip-path="url(#clipPath2)"/>
      <text x="676.3779" xml:space="preserve" y="576.1543" clip-path="url(#clipPath2)" font-family="sans-serif" stroke="none">HelperClass</text>
    </g>
    <g fill="url(#linearGradient4)" text-rendering="geometricPrecision" shape-rendering="geometricPrecision" transform="matrix(1,0,0,1,-570,-392)" stroke="url(#linearGradient4)">
      <rect x="672" y="444" clip-path="url(#clipPath2)" width="80" rx="20" ry="20" height="40" stroke="none"/>
    </g>
    <g text-rendering="geometricPrecision" stroke-miterlimit="1.45" shape-rendering="geometricPrecision" transform="matrix(1,0,0,1,-570,-392)" stroke-linecap="butt">
      <rect x="672" y="444" clip-path="url(#clipPath2)" fill="none" width="80" rx="20" ry="20" height="40"/>
      <text x="681.8916" xml:space="preserve" y="468.1543" clip-path="url(#clipPath2)" font-family="sans-serif" stroke="none">MainClass</text>
    </g>
    <g fill="rgb(225,225,225)" text-rendering="geometricPrecision" shape-rendering="geometricPrecision" transform="matrix(1,0,0,1,-570,-392)" stroke="rgb(225,225,225)">
      <rect x="960.5" y="444" clip-path="url(#clipPath2)" width="89" rx="4" ry="4" height="51.4609" stroke="none"/>
      <rect x="960.5" y="444" clip-path="url(#clipPath2)" fill="rgb(235,235,235)" width="89" height="21.4609" stroke="none"/>
    </g>
    <g font-size="15px" stroke-linecap="butt" transform="matrix(1,0,0,1,-570,-392)" text-rendering="geometricPrecision" font-family="sans-serif" shape-rendering="geometricPrecision" stroke-miterlimit="1.45">
      <text x="984.3872" xml:space="preserve" y="459.9233" clip-path="url(#clipPath2)" stroke="none">Package</text>
      <rect x="960.5" y="444" clip-path="url(#clipPath2)" fill="none" width="89" stroke-dasharray="6,2" rx="4" ry="4" height="51.4609"/>
      <path fill="none" d="M687.3877 483.4517 L650 513 L685.1646 546.4631" clip-path="url(#clipPath2)"/>
      <path d="M690.96 551.978 L685.7137 540.0836 L684.4402 545.7738 L678.8201 547.3278 Z" stroke="none" clip-path="url(#clipPath2)"/>
      <text x="602.5263" xml:space="preserve" font-size="12px" y="493.6175" clip-path="url(#clipPath2)" stroke="none">data_flow</text>
      <path fill="none" stroke-dasharray="6,2" d="M736.4067 483.5254 L777 516 L746.5648 542.2211" clip-path="url(#clipPath2)"/>
    </g>
    <g stroke-linecap="butt" transform="matrix(1,0,0,1,-570,-392)" fill="white" text-rendering="geometricPrecision" shape-rendering="geometricPrecision" stroke-dasharray="6,2" stroke="white" stroke-miterlimit="1.45">
      <path d="M735.2007 552.0117 L751.2386 546.114 L743.4062 537.0227 Z" stroke="none" clip-path="url(#clipPath2)"/>
      <path fill="none" stroke-dasharray="none" d="M735.2007 552.0117 L751.2386 546.114 L743.4062 537.0227 Z" clip-path="url(#clipPath2)" stroke="black"/>
    </g>
    <g text-rendering="geometricPrecision" stroke-miterlimit="1.45" shape-rendering="geometricPrecision" font-family="sans-serif" transform="matrix(1,0,0,1,-570,-392)" stroke-linecap="butt">
      <text x="759.4537" xml:space="preserve" y="496.7282" clip-path="url(#clipPath2)" stroke="none">control_flow</text>
    </g>
    <g transform="matrix(1,0,0,1,-570,-392)" fill-opacity="0.5176" fill="rgb(182,216,235)" text-rendering="geometricPrecision" shape-rendering="geometricPrecision" stroke="rgb(182,216,235)" stroke-opacity="0.5176">
      <rect x="611.0182" y="622" clip-path="url(#clipPath2)" width="98" rx="4" ry="4" height="51.4609" stroke="none"/>
    </g>
    <g fill="rgb(153,204,255)" text-rendering="geometricPrecision" shape-rendering="geometricPrecision" transform="matrix(1,0,0,1,-570,-392)" stroke="rgb(153,204,255)">
      <rect x="611.0182" width="98" height="21.4609" y="622" clip-path="url(#clipPath2)" stroke="none"/>
    </g>
    <g font-size="15px" stroke-linecap="butt" transform="matrix(1,0,0,1,-570,-392)" text-rendering="geometricPrecision" font-family="sans-serif" shape-rendering="geometricPrecision" stroke-miterlimit="1.45">
      <text x="637.8264" xml:space="preserve" y="637.9233" clip-path="url(#clipPath2)" stroke="none">Grouping</text>
    </g>
    <g stroke-linecap="round" transform="matrix(1,0,0,1,-570,-392)" stroke-dashoffset="2" fill="rgb(102,102,153)" text-rendering="geometricPrecision" shape-rendering="geometricPrecision" stroke-dasharray="0,4" stroke="rgb(102,102,153)" stroke-miterlimit="1.45">
      <rect x="611.0182" y="622" clip-path="url(#clipPath2)" fill="none" width="98" rx="4" ry="4" height="51.4609"/>
    </g>
    <g transform="matrix(1,0,0,1,-570,-392)" fill-opacity="0.5176" fill="rgb(182,216,235)" text-rendering="geometricPrecision" shape-rendering="geometricPrecision" stroke="rgb(182,216,235)" stroke-opacity="0.5176">
      <rect x="951.5" y="622" clip-path="url(#clipPath2)" width="98" rx="4" ry="4" height="51.4609" stroke="none"/>
    </g>
    <g fill="rgb(153,204,255)" text-rendering="geometricPrecision" shape-rendering="geometricPrecision" transform="matrix(1,0,0,1,-570,-392)" stroke="rgb(153,204,255)">
      <rect x="951.5" width="98" height="21.4609" y="622" clip-path="url(#clipPath2)" stroke="none"/>
    </g>
    <g font-size="15px" stroke-linecap="butt" transform="matrix(1,0,0,1,-570,-392)" text-rendering="geometricPrecision" font-family="sans-serif" shape-rendering="geometricPrecision" stroke-miterlimit="1.45">
      <text x="978.3081" xml:space="preserve" y="637.9233" clip-path="url(#clipPath2)" stroke="none">Grouping</text>
    </g>
    <g stroke-linecap="round" transform="matrix(1,0,0,1,-570,-392)" stroke-dashoffset="2" fill="rgb(102,102,153)" text-rendering="geometricPrecision" shape-rendering="geometricPrecision" stroke-dasharray="0,4" stroke="rgb(102,102,153)" stroke-miterlimit="1.45">
      <rect x="951.5" y="622" clip-path="url(#clipPath2)" fill="none" width="98" rx="4" ry="4" height="51.4609"/>
    </g>
    <g text-rendering="geometricPrecision" stroke-miterlimit="1.45" stroke-width="3" shape-rendering="geometricPrecision" transform="matrix(1,0,0,1,-570,-392)" stroke-linecap="butt">
      <path fill="none" d="M709.0436 647.7305 L941.5193 647.7305" clip-path="url(#clipPath2)"/>
      <path d="M951.5193 647.7305 L936.5193 641.4805 L940.2693 647.7305 L936.5193 653.9805 Z" clip-path="url(#clipPath2)" stroke="none"/>
      <text x="761.4378" y="637.916" clip-path="url(#clipPath2)" font-family="sans-serif" stroke="none" stroke-width="1" xml:space="preserve">module-wise data_flow</text>
      <text x="828.3519" y="651.8848" clip-path="url(#clipPath2)" font-family="sans-serif" stroke="none" stroke-width="1" xml:space="preserve"> </text>
      <text x="780.7767" y="665.8535" clip-path="url(#clipPath2)" font-family="sans-serif" stroke="none" stroke-width="1" xml:space="preserve">and control_flow</text>
    </g>
  </g>
</svg>
