<?xml version="1.0" encoding="UTF-8"?><svg xmlns="http://www.w3.org/2000/svg" xmlns:xlink="http://www.w3.org/1999/xlink" fill-opacity="1" color-rendering="auto" color-interpolation="auto" text-rendering="auto" stroke="black" stroke-linecap="square" width="1097" stroke-miterlimit="10" shape-rendering="auto" stroke-opacity="1" fill="black" stroke-dasharray="none" font-weight="normal" stroke-width="1" height="634" font-family="'Dialog'" font-style="normal" stroke-linejoin="miter" font-size="12px" stroke-dashoffset="0" image-rendering="auto">
  <!--Generated by ySVG 2.5-->
  <defs id="genericDefs"/>
  <g>
    <defs id="defs1">
      <linearGradient x1="184.2531" gradientUnits="userSpaceOnUse" x2="371.2531" y1="297.217" y2="673.2902" id="linearGradient1" spreadMethod="reflect">
        <stop stop-opacity="1" stop-color="rgb(204,255,204)" offset="0%"/>
        <stop stop-opacity="1" stop-color="rgb(204,255,204)" offset="100%"/>
      </linearGradient>
      <linearGradient x1="208.7531" gradientUnits="userSpaceOnUse" x2="346.7531" y1="456.1805" y2="543.1597" id="linearGradient2" spreadMethod="reflect">
        <stop stop-opacity="1" stop-color="rgb(255,255,153)" offset="0%"/>
        <stop stop-opacity="1" stop-color="rgb(255,255,153)" offset="100%"/>
      </linearGradient>
      <linearGradient x1="184.2531" gradientUnits="userSpaceOnUse" x2="371.2531" y1="694.3715" y2="733.4047" id="linearGradient3" spreadMethod="reflect">
        <stop stop-opacity="1" stop-color="rgb(232,238,247)" offset="0%"/>
        <stop stop-opacity="1" stop-color="rgb(183,201,227)" offset="100%"/>
      </linearGradient>
      <linearGradient x1="208.7531" gradientUnits="userSpaceOnUse" x2="346.7531" y1="549.3962" y2="637.4434" id="linearGradient4" spreadMethod="reflect">
        <stop stop-opacity="1" stop-color="rgb(255,255,153)" offset="0%"/>
        <stop stop-opacity="1" stop-color="rgb(255,255,153)" offset="100%"/>
      </linearGradient>
      <linearGradient x1="208.7531" gradientUnits="userSpaceOnUse" x2="346.7531" y1="371.4051" y2="449.9439" id="linearGradient5" spreadMethod="reflect">
        <stop stop-opacity="1" stop-color="rgb(255,255,153)" offset="0%"/>
        <stop stop-opacity="1" stop-color="rgb(255,255,153)" offset="100%"/>
      </linearGradient>
      <linearGradient x1="169.7502" gradientUnits="userSpaceOnUse" x2="385.7561" y1="214.5751" y2="307.5842" id="linearGradient6" spreadMethod="reflect">
        <stop stop-opacity="1" stop-color="rgb(232,238,247)" offset="0%"/>
        <stop stop-opacity="1" stop-color="rgb(183,201,227)" offset="100%"/>
      </linearGradient>
      <linearGradient x1="-175.8476" gradientUnits="userSpaceOnUse" x2="57.1524" y1="646.1747" y2="701.9194" id="linearGradient7" spreadMethod="reflect">
        <stop stop-opacity="1" stop-color="rgb(232,238,247)" offset="0%"/>
        <stop stop-opacity="1" stop-color="rgb(183,201,227)" offset="100%"/>
      </linearGradient>
      <linearGradient x1="-200.093" gradientUnits="userSpaceOnUse" x2="81.9069" y1="322.0163" y2="370.0163" id="linearGradient8" spreadMethod="reflect">
        <stop stop-opacity="1" stop-color="rgb(232,238,247)" offset="0%"/>
        <stop stop-opacity="1" stop-color="rgb(183,201,227)" offset="100%"/>
      </linearGradient>
      <linearGradient x1="-199.1179" gradientUnits="userSpaceOnUse" x2="80.9318" y1="500.6314" y2="549.1978" id="linearGradient9" spreadMethod="reflect">
        <stop stop-opacity="1" stop-color="rgb(232,238,247)" offset="0%"/>
        <stop stop-opacity="1" stop-color="rgb(183,201,227)" offset="100%"/>
      </linearGradient>
      <linearGradient x1="-200.093" gradientUnits="userSpaceOnUse" x2="81.9069" y1="441.1123" y2="489.6787" id="linearGradient10" spreadMethod="reflect">
        <stop stop-opacity="1" stop-color="rgb(232,238,247)" offset="0%"/>
        <stop stop-opacity="1" stop-color="rgb(183,201,227)" offset="100%"/>
      </linearGradient>
      <linearGradient x1="-208.593" gradientUnits="userSpaceOnUse" x2="90.4069" y1="231.4141" y2="312.254" id="linearGradient11" spreadMethod="reflect">
        <stop stop-opacity="1" stop-color="rgb(232,238,247)" offset="0%"/>
        <stop stop-opacity="1" stop-color="rgb(183,201,227)" offset="100%"/>
      </linearGradient>
      <linearGradient x1="-200.093" gradientUnits="userSpaceOnUse" x2="81.9069" y1="381.5643" y2="429.5643" id="linearGradient12" spreadMethod="reflect">
        <stop stop-opacity="1" stop-color="rgb(232,238,247)" offset="0%"/>
        <stop stop-opacity="1" stop-color="rgb(183,201,227)" offset="100%"/>
      </linearGradient>
      <linearGradient x1="-199.1179" gradientUnits="userSpaceOnUse" x2="80.9318" y1="560.1506" y2="608.717" id="linearGradient13" spreadMethod="reflect">
        <stop stop-opacity="1" stop-color="rgb(232,238,247)" offset="0%"/>
        <stop stop-opacity="1" stop-color="rgb(183,201,227)" offset="100%"/>
      </linearGradient>
      <linearGradient x1="-630.2979" gradientUnits="userSpaceOnUse" x2="-307.2979" y1="204.2079" y2="575.2079" id="linearGradient14" spreadMethod="reflect">
        <stop stop-opacity="1" stop-color="rgb(204,255,204)" offset="0%"/>
        <stop stop-opacity="1" stop-color="rgb(204,255,204)" offset="100%"/>
      </linearGradient>
      <linearGradient x1="-591.7502" gradientUnits="userSpaceOnUse" x2="-338.2607" y1="272.217" y2="359.1962" id="linearGradient15" spreadMethod="reflect">
        <stop stop-opacity="1" stop-color="rgb(255,255,153)" offset="0%"/>
        <stop stop-opacity="1" stop-color="rgb(255,255,153)" offset="100%"/>
      </linearGradient>
      <linearGradient x1="-590.9951" gradientUnits="userSpaceOnUse" x2="-338.2607" y1="381.9527" y2="468.9319" id="linearGradient16" spreadMethod="reflect">
        <stop stop-opacity="1" stop-color="rgb(255,255,153)" offset="0%"/>
        <stop stop-opacity="1" stop-color="rgb(255,255,153)" offset="100%"/>
      </linearGradient>
      <linearGradient x1="-615.2979" gradientUnits="userSpaceOnUse" x2="-486.2979" y1="611.6688" y2="640.67" id="linearGradient17" spreadMethod="reflect">
        <stop stop-opacity="1" stop-color="rgb(232,238,247)" offset="0%"/>
        <stop stop-opacity="1" stop-color="rgb(183,201,227)" offset="100%"/>
      </linearGradient>
      <linearGradient x1="-615.2979" gradientUnits="userSpaceOnUse" x2="-486.2979" y1="653.9091" y2="701.9091" id="linearGradient18" spreadMethod="reflect">
        <stop stop-opacity="1" stop-color="rgb(232,238,247)" offset="0%"/>
        <stop stop-opacity="1" stop-color="rgb(183,201,227)" offset="100%"/>
      </linearGradient>
      <linearGradient x1="-420.7979" gradientUnits="userSpaceOnUse" x2="-291.7979" y1="604.6688" y2="633.67" id="linearGradient19" spreadMethod="reflect">
        <stop stop-opacity="1" stop-color="rgb(232,238,247)" offset="0%"/>
        <stop stop-opacity="1" stop-color="rgb(183,201,227)" offset="100%"/>
      </linearGradient>
      <linearGradient x1="-421.1455" gradientUnits="userSpaceOnUse" x2="-292.1455" y1="644.2889" y2="673.2902" id="linearGradient20" spreadMethod="reflect">
        <stop stop-opacity="1" stop-color="rgb(232,238,247)" offset="0%"/>
        <stop stop-opacity="1" stop-color="rgb(183,201,227)" offset="100%"/>
      </linearGradient>
      <linearGradient x1="-420.7979" gradientUnits="userSpaceOnUse" x2="-292.1455" y1="683.9091" y2="712.9103" id="linearGradient21" spreadMethod="reflect">
        <stop stop-opacity="1" stop-color="rgb(232,238,247)" offset="0%"/>
        <stop stop-opacity="1" stop-color="rgb(183,201,227)" offset="100%"/>
      </linearGradient>
      <linearGradient x1="-140.5651" gradientUnits="userSpaceOnUse" x2="21.8699" y1="711.6206" y2="759.6206" id="linearGradient22" spreadMethod="reflect">
        <stop stop-opacity="1" stop-color="rgb(232,238,247)" offset="0%"/>
        <stop stop-opacity="1" stop-color="rgb(183,201,227)" offset="100%"/>
      </linearGradient>
      <clipPath clipPathUnits="userSpaceOnUse" id="clipPath1">
        <path d="M0 0 L1097 0 L1097 634 L0 634 L0 0 Z"/>
      </clipPath>
      <clipPath clipPathUnits="userSpaceOnUse" id="clipPath2">
        <path d="M-669 141 L428 141 L428 775 L-669 775 L-669 141 Z"/>
      </clipPath>
      <clipPath clipPathUnits="userSpaceOnUse" id="clipPath3">
        <path d="M-673 137 L424 137 L424 771 L-673 771 L-673 137 Z"/>
      </clipPath>
    </defs>
    <g fill="white" text-rendering="geometricPrecision" shape-rendering="geometricPrecision" transform="translate(669,-141)" stroke="white">
      <rect x="-669" width="1097" height="634" y="141" clip-path="url(#clipPath2)" stroke="none"/>
    </g>
    <g transform="matrix(1,0,0,1,669,-141)" fill-opacity="0.502" fill="rgb(202,236,255)" text-rendering="geometricPrecision" shape-rendering="geometricPrecision" stroke="rgb(202,236,255)" stroke-opacity="0.502">
      <rect x="148.2419" y="157.7378" clip-path="url(#clipPath2)" width="264.0372" rx="4" ry="4" height="587.8401" stroke="none"/>
    </g>
    <g fill="rgb(153,204,255)" text-rendering="geometricPrecision" shape-rendering="geometricPrecision" transform="matrix(1,0,0,1,669,-141)" stroke="rgb(153,204,255)">
      <rect x="148.2419" width="264.0372" height="21.4609" y="157.7378" clip-path="url(#clipPath2)" stroke="none"/>
    </g>
    <g font-size="15px" stroke-linecap="butt" transform="matrix(1,0,0,1,669,-141)" text-rendering="geometricPrecision" font-family="sans-serif" shape-rendering="geometricPrecision" stroke-miterlimit="1.45">
      <text x="369.1243" xml:space="preserve" y="173.6611" clip-path="url(#clipPath2)" stroke="none">Redis</text>
    </g>
    <g stroke-linecap="round" transform="matrix(1,0,0,1,669,-141)" stroke-dashoffset="2" fill="rgb(102,102,153)" text-rendering="geometricPrecision" shape-rendering="geometricPrecision" stroke-dasharray="0,4" stroke="rgb(102,102,153)" stroke-miterlimit="1.45">
      <rect x="148.2419" y="157.7378" clip-path="url(#clipPath2)" fill="none" width="264.0372" rx="4" ry="4" height="587.8401"/>
    </g>
    <g fill="url(#linearGradient1)" text-rendering="geometricPrecision" shape-rendering="geometricPrecision" transform="matrix(1,0,0,1,669,-141)" stroke="url(#linearGradient1)">
      <path d="M184.2531 372.4316 C189.8631 297.217 365.6431 297.217 371.2531 372.4316 L371.2531 598.0756 C365.6431 673.2902 189.8631 673.2902 184.2531 598.0756 Z" stroke="none" clip-path="url(#clipPath2)"/>
    </g>
    <g text-rendering="geometricPrecision" stroke-miterlimit="1.45" shape-rendering="geometricPrecision" transform="matrix(1,0,0,1,669,-141)" stroke-linecap="butt">
      <path fill="none" d="M184.2531 372.4316 C189.8631 297.217 365.6431 297.217 371.2531 372.4316 L371.2531 598.0756 C365.6431 673.2902 189.8631 673.2902 184.2531 598.0756 Z" clip-path="url(#clipPath2)"/>
      <path fill="none" d="M371.2531 372.4316 C365.6431 447.6463 189.8631 447.6463 184.2531 372.4316" clip-path="url(#clipPath2)"/>
      <text x="240.7248" xml:space="preserve" y="363.1726" clip-path="url(#clipPath2)" font-family="sans-serif" stroke="none">Redis Cache</text>
    </g>
    <g fill="url(#linearGradient2)" text-rendering="geometricPrecision" shape-rendering="geometricPrecision" transform="matrix(1,0,0,1,669,-141)" stroke="url(#linearGradient2)">
      <rect x="208.7531" width="138" height="86.9792" y="456.1804" clip-path="url(#clipPath2)" stroke="none"/>
    </g>
    <g text-rendering="geometricPrecision" stroke-miterlimit="1.45" shape-rendering="geometricPrecision" transform="matrix(1,0,0,1,669,-141)" stroke-linecap="butt">
      <rect fill="none" x="208.7531" width="138" height="86.9792" y="456.1804" clip-path="url(#clipPath2)"/>
      <path fill="none" d="M218.7531 456.1805 L218.7531 543.1597 M336.7531 456.1805 L336.7531 543.1597 M218.7531 456.1805 Z" clip-path="url(#clipPath2)"/>
      <text x="250.2551" xml:space="preserve" y="475.8868" clip-path="url(#clipPath2)" font-family="sans-serif" stroke="none">User-Hist</text>
      <text x="218.7375" xml:space="preserve" y="489.8556" clip-path="url(#clipPath2)" font-family="sans-serif" stroke="none">&lt;user_id:meal_id&gt;:</text>
      <text x="229.7971" xml:space="preserve" y="503.8243" clip-path="url(#clipPath2)" font-family="sans-serif" stroke="none">[[&lt;nutrients&gt;], </text>
      <text x="244.2873" xml:space="preserve" y="517.7931" clip-path="url(#clipPath2)" font-family="sans-serif" stroke="none">[&lt;foods&gt;]]</text>
      <text x="226.7414" xml:space="preserve" y="531.7618" clip-path="url(#clipPath2)" font-family="sans-serif" stroke="none">lifetime~1month</text>
    </g>
    <g fill="url(#linearGradient3)" text-rendering="geometricPrecision" shape-rendering="geometricPrecision" transform="matrix(1,0,0,1,669,-141)" stroke="url(#linearGradient3)">
      <path d="M184.2531 694.3715 L371.2531 694.3715 L371.2531 733.4047 L184.2531 733.4047 Z" stroke="none" clip-path="url(#clipPath2)"/>
    </g>
    <g text-rendering="geometricPrecision" stroke-miterlimit="1.45" shape-rendering="geometricPrecision" transform="matrix(1,0,0,1,669,-141)" stroke-linecap="butt">
      <path fill="none" d="M184.2531 694.3715 L371.2531 694.3715 L371.2531 733.4047 L184.2531 733.4047 Z" clip-path="url(#clipPath2)"/>
      <text x="226.4162" xml:space="preserve" y="718.0424" clip-path="url(#clipPath2)" font-family="sans-serif" stroke="none">SerializeWrapper</text>
    </g>
    <g fill="url(#linearGradient4)" text-rendering="geometricPrecision" shape-rendering="geometricPrecision" transform="matrix(1,0,0,1,669,-141)" stroke="url(#linearGradient4)">
      <rect x="208.7531" width="138" height="88.0472" y="549.3962" clip-path="url(#clipPath2)" stroke="none"/>
    </g>
    <g text-rendering="geometricPrecision" stroke-miterlimit="1.45" shape-rendering="geometricPrecision" transform="matrix(1,0,0,1,669,-141)" stroke-linecap="butt">
      <rect fill="none" x="208.7531" width="138" height="88.0472" y="549.3962" clip-path="url(#clipPath2)"/>
      <path fill="none" d="M218.7531 549.3962 L218.7531 637.4434 M336.7531 549.3962 L336.7531 637.4434 M218.7531 549.3962 Z" clip-path="url(#clipPath2)"/>
      <text x="251.09" xml:space="preserve" y="569.6366" clip-path="url(#clipPath2)" font-family="sans-serif" stroke="none">User-Log</text>
      <text x="209.7287" xml:space="preserve" y="583.6053" clip-path="url(#clipPath2)" font-family="sans-serif" stroke="none">&lt;user_id:timestamp&gt;:</text>
      <text x="237.8683" xml:space="preserve" y="597.5741" clip-path="url(#clipPath2)" font-family="sans-serif" stroke="none">[&lt;state_id&gt;, </text>
      <text x="230.1721" xml:space="preserve" y="611.5428" clip-path="url(#clipPath2)" font-family="sans-serif" stroke="none">&lt;JSON object&gt;]</text>
      <text x="230.4504" xml:space="preserve" y="625.5116" clip-path="url(#clipPath2)" font-family="sans-serif" stroke="none">lifetime~1week</text>
    </g>
    <g fill="url(#linearGradient5)" text-rendering="geometricPrecision" shape-rendering="geometricPrecision" transform="matrix(1,0,0,1,669,-141)" stroke="url(#linearGradient5)">
      <rect x="208.7531" width="138" height="78.5388" y="371.4051" clip-path="url(#clipPath2)" stroke="none"/>
    </g>
    <g text-rendering="geometricPrecision" stroke-miterlimit="1.45" shape-rendering="geometricPrecision" transform="matrix(1,0,0,1,669,-141)" stroke-linecap="butt">
      <rect fill="none" x="208.7531" width="138" height="78.5388" y="371.4051" clip-path="url(#clipPath2)"/>
      <path fill="none" d="M218.7531 371.4051 L218.7531 449.9439 M336.7531 371.4051 L336.7531 449.9439 M218.7531 371.4051 Z" clip-path="url(#clipPath2)"/>
      <text x="246.0305" xml:space="preserve" y="393.8757" clip-path="url(#clipPath2)" font-family="sans-serif" stroke="none">User-State</text>
      <text x="244.1144" xml:space="preserve" y="407.8445" clip-path="url(#clipPath2)" font-family="sans-serif" stroke="none">&lt;user_id&gt;:</text>
      <text x="239.342" xml:space="preserve" y="421.8132" clip-path="url(#clipPath2)" font-family="sans-serif" stroke="none">[&lt;state_id&gt;]</text>
      <text x="236.8195" xml:space="preserve" y="435.782" clip-path="url(#clipPath2)" font-family="sans-serif" stroke="none">lifetime~3hrs</text>
    </g>
    <g fill="url(#linearGradient6)" text-rendering="geometricPrecision" shape-rendering="geometricPrecision" transform="matrix(1,0,0,1,669,-141)" stroke="url(#linearGradient6)">
      <rect x="169.7502" y="214.5751" clip-path="url(#clipPath2)" width="216.0059" rx="46.5046" ry="46.5046" height="93.0091" stroke="none"/>
    </g>
    <g text-rendering="geometricPrecision" stroke-miterlimit="1.45" shape-rendering="geometricPrecision" transform="matrix(1,0,0,1,669,-141)" stroke-linecap="butt">
      <rect x="169.7502" y="214.5751" clip-path="url(#clipPath2)" fill="none" width="216.0059" rx="46.5046" ry="46.5046" height="93.0091"/>
      <text x="240.5871" xml:space="preserve" y="251.2652" clip-path="url(#clipPath2)" font-family="sans-serif" stroke="none">StateKeeper</text>
      <text x="213.2414" xml:space="preserve" y="265.2339" clip-path="url(#clipPath2)" font-family="sans-serif" stroke="none">+ get(int user_id): int</text>
      <text x="188.4562" xml:space="preserve" y="279.2027" clip-path="url(#clipPath2)" font-family="sans-serif" stroke="none">+ set(int user_id, int state_id)</text>
    </g>
    <g text-rendering="geometricPrecision" stroke-miterlimit="1.45" shape-rendering="geometricPrecision" transform="matrix(1,0,0,1,669,-141)" stroke-linecap="butt">
      <path fill="none" d="M277.7531 686.3794 L277.7531 662.4791" clip-path="url(#clipPath2)"/>
      <path d="M277.7531 694.3794 L282.7531 682.3794 L277.7531 685.3794 L272.7531 682.3794 Z" clip-path="url(#clipPath2)" stroke="none"/>
      <path d="M277.7531 654.4791 L272.7531 666.4791 L277.7531 663.4791 L282.7531 666.4791 Z" clip-path="url(#clipPath2)" stroke="none"/>
      <path fill="none" d="M354.7262 410.6745 L403.259 410.6745 L403.259 259.217 L393.7008 259.3589" clip-path="url(#clipPath2)"/>
      <path d="M346.7262 410.6745 L358.7262 415.6745 L355.7262 410.6745 L358.7262 405.6745 Z" clip-path="url(#clipPath2)" stroke="none"/>
      <path d="M385.7017 259.4776 L397.7745 264.299 L394.7007 259.344 L397.6261 254.3 Z" clip-path="url(#clipPath2)" stroke="none"/>
    </g>
    <g transform="matrix(1,0,0,1,669,-141)" fill-opacity="0.502" fill="rgb(202,236,255)" text-rendering="geometricPrecision" shape-rendering="geometricPrecision" stroke="rgb(202,236,255)" stroke-opacity="0.502">
      <rect x="-245.0455" y="156.7469" clip-path="url(#clipPath2)" width="375.9049" rx="4" ry="4" height="580.9127" stroke="none"/>
    </g>
    <g fill="rgb(153,204,255)" text-rendering="geometricPrecision" shape-rendering="geometricPrecision" transform="matrix(1,0,0,1,669,-141)" stroke="rgb(153,204,255)">
      <rect x="-245.0455" width="375.9049" height="21.4609" y="156.7469" clip-path="url(#clipPath2)" stroke="none"/>
    </g>
    <g font-size="15px" stroke-linecap="butt" transform="matrix(1,0,0,1,669,-141)" text-rendering="geometricPrecision" font-family="sans-serif" shape-rendering="geometricPrecision" stroke-miterlimit="1.45">
      <text x="63.1099" xml:space="preserve" y="172.6703" clip-path="url(#clipPath2)" stroke="none">Manager</text>
    </g>
    <g stroke-linecap="round" transform="matrix(1,0,0,1,669,-141)" stroke-dashoffset="2" fill="rgb(102,102,153)" text-rendering="geometricPrecision" shape-rendering="geometricPrecision" stroke-dasharray="0,4" stroke="rgb(102,102,153)" stroke-miterlimit="1.45">
      <rect x="-245.0455" y="156.7469" clip-path="url(#clipPath2)" fill="none" width="375.9049" rx="4" ry="4" height="580.9127"/>
    </g>
    <g fill="url(#linearGradient7)" text-rendering="geometricPrecision" shape-rendering="geometricPrecision" transform="matrix(1,0,0,1,669,-141)" stroke="url(#linearGradient7)">
      <path d="M-175.8476 646.1747 L57.1524 646.1747 L57.1524 701.9194 L-175.8476 701.9194 Z" stroke="none" clip-path="url(#clipPath2)"/>
    </g>
    <g text-rendering="geometricPrecision" stroke-miterlimit="1.45" shape-rendering="geometricPrecision" transform="matrix(1,0,0,1,669,-141)" stroke-linecap="butt">
      <path fill="none" d="M-175.8476 646.1747 L57.1524 646.1747 L57.1524 701.9194 L-175.8476 701.9194 Z" clip-path="url(#clipPath2)"/>
      <text x="-113.0517" xml:space="preserve" y="678.2014" clip-path="url(#clipPath2)" font-family="sans-serif" stroke="none">FoodPreprocessor</text>
    </g>
    <g fill="rgb(210,210,210)" text-rendering="geometricPrecision" shape-rendering="geometricPrecision" transform="matrix(1,0,0,1,669,-141) translate(4,4)" stroke="rgb(210,210,210)">
      <rect x="-225.0931" width="339.9049" height="431.4428" y="194.9532" clip-path="url(#clipPath3)" stroke="none"/>
    </g>
    <g fill="rgb(222,220,196)" text-rendering="geometricPrecision" shape-rendering="geometricPrecision" transform="matrix(1,0,0,1,669,-141)" stroke="rgb(222,220,196)">
      <rect x="-225.0931" width="339.9049" height="431.4428" y="194.9532" clip-path="url(#clipPath2)" stroke="none"/>
      <rect x="-225.0931" y="194.9532" clip-path="url(#clipPath2)" fill="rgb(183,182,158)" width="339.9049" height="21.4609" stroke="none"/>
    </g>
    <g font-size="15px" stroke-linecap="butt" transform="matrix(1,0,0,1,669,-141)" text-rendering="geometricPrecision" font-family="sans-serif" shape-rendering="geometricPrecision" stroke-miterlimit="1.45">
      <text x="56.5398" xml:space="preserve" y="210.8765" clip-path="url(#clipPath2)" stroke="none">Querier</text>
      <rect fill="none" x="-225.0931" width="339.9049" height="431.4428" y="194.9532" clip-path="url(#clipPath2)"/>
    </g>
    <g fill="url(#linearGradient8)" text-rendering="geometricPrecision" shape-rendering="geometricPrecision" transform="matrix(1,0,0,1,669,-141)" stroke="url(#linearGradient8)">
      <rect x="-200.0931" y="322.0163" clip-path="url(#clipPath2)" width="282" rx="24" ry="24" height="48" stroke="none"/>
    </g>
    <g text-rendering="geometricPrecision" stroke-miterlimit="1.45" shape-rendering="geometricPrecision" transform="matrix(1,0,0,1,669,-141)" stroke-linecap="butt">
      <rect x="-200.0931" y="322.0163" clip-path="url(#clipPath2)" fill="none" width="282" rx="24" ry="24" height="48"/>
      <text x="-115.3284" xml:space="preserve" y="336.2019" clip-path="url(#clipPath2)" font-family="sans-serif" stroke="none">PartialFoodQuerier</text>
      <text x="-184.6448" xml:space="preserve" y="350.1706" clip-path="url(#clipPath2)" font-family="sans-serif" stroke="none"> - partialSearch(String name): [FoodJSON]</text>
      <text x="-146.761" xml:space="preserve" y="364.1394" clip-path="url(#clipPath2)" font-family="sans-serif" stroke="none"> - addFood(String, FoodJSON)</text>
    </g>
    <g fill="url(#linearGradient9)" text-rendering="geometricPrecision" shape-rendering="geometricPrecision" transform="matrix(1,0,0,1,669,-141)" stroke="url(#linearGradient9)">
      <rect x="-199.1179" y="500.6314" clip-path="url(#clipPath2)" width="280.0496" rx="24.2832" ry="24.2832" height="48.5664" stroke="none"/>
    </g>
    <g text-rendering="geometricPrecision" stroke-miterlimit="1.45" shape-rendering="geometricPrecision" transform="matrix(1,0,0,1,669,-141)" stroke-linecap="butt">
      <rect x="-199.1179" y="500.6314" clip-path="url(#clipPath2)" fill="none" width="280.0496" rx="24.2832" ry="24.2832" height="48.5664"/>
      <text x="-93.2591" xml:space="preserve" y="515.1002" clip-path="url(#clipPath2)" font-family="sans-serif" stroke="none">HistQuerier</text>
      <text x="-174.8421" xml:space="preserve" y="529.0689" clip-path="url(#clipPath2)" font-family="sans-serif" stroke="none"> - getUserMeals(int user_id): MealJSON</text>
      <text x="-161.8225" xml:space="preserve" y="543.0377" clip-path="url(#clipPath2)" font-family="sans-serif" stroke="none"> - addMeal(int user_id): MealJSON)</text>
    </g>
    <g fill="url(#linearGradient10)" text-rendering="geometricPrecision" shape-rendering="geometricPrecision" transform="matrix(1,0,0,1,669,-141)" stroke="url(#linearGradient10)">
      <rect x="-200.0931" y="441.1123" clip-path="url(#clipPath2)" width="282" rx="24.2832" ry="24.2832" height="48.5664" stroke="none"/>
    </g>
    <g text-rendering="geometricPrecision" stroke-miterlimit="1.45" shape-rendering="geometricPrecision" transform="matrix(1,0,0,1,669,-141)" stroke-linecap="butt">
      <rect x="-200.0931" y="441.1123" clip-path="url(#clipPath2)" fill="none" width="282" rx="24.2832" ry="24.2832" height="48.5664"/>
      <text x="-95.2776" xml:space="preserve" y="455.5811" clip-path="url(#clipPath2)" font-family="sans-serif" stroke="none">UserQuerier</text>
      <text x="-168.3235" xml:space="preserve" y="469.5498" clip-path="url(#clipPath2)" font-family="sans-serif" stroke="none"> - getUserInfo(int user_id): UserJSON</text>
      <text x="-167.5266" xml:space="preserve" y="483.5186" clip-path="url(#clipPath2)" font-family="sans-serif" stroke="none"> - setUserInfo(int user_id, UserJSON)</text>
    </g>
    <g fill="url(#linearGradient11)" text-rendering="geometricPrecision" shape-rendering="geometricPrecision" transform="matrix(1,0,0,1,669,-141)" stroke="url(#linearGradient11)">
      <path d="M-59.0931 231.4141 L90.4069 271.834 L-59.0931 312.254 L-208.593 271.834 Z" stroke="none" clip-path="url(#clipPath2)"/>
    </g>
    <g text-rendering="geometricPrecision" stroke-miterlimit="1.45" shape-rendering="geometricPrecision" transform="matrix(1,0,0,1,669,-141)" stroke-linecap="butt">
      <path fill="none" d="M-59.0931 231.4141 L90.4069 271.834 L-59.0931 312.254 L-208.593 271.834 Z" clip-path="url(#clipPath2)"/>
      <text x="-120.3235" xml:space="preserve" y="255.0352" clip-path="url(#clipPath2)" font-family="sans-serif" stroke="none">&lt;interface&gt; Querier</text>
      <text x="-147.7952" xml:space="preserve" y="269.004" clip-path="url(#clipPath2)" font-family="sans-serif" stroke="none">+ constructor(DBConfigJSON)</text>
      <text x="-121.8675" xml:space="preserve" y="282.9727" clip-path="url(#clipPath2)" font-family="sans-serif" stroke="none">+ get(String): [JSON]</text>
      <text x="-121.0706" xml:space="preserve" y="296.9415" clip-path="url(#clipPath2)" font-family="sans-serif" stroke="none">+ set(String, [JSON])</text>
    </g>
    <g fill="url(#linearGradient12)" text-rendering="geometricPrecision" shape-rendering="geometricPrecision" transform="matrix(1,0,0,1,669,-141)" stroke="url(#linearGradient12)">
      <rect x="-200.0931" y="381.5643" clip-path="url(#clipPath2)" width="282" rx="24" ry="24" height="48" stroke="none"/>
    </g>
    <g text-rendering="geometricPrecision" stroke-miterlimit="1.45" shape-rendering="geometricPrecision" transform="matrix(1,0,0,1,669,-141)" stroke-linecap="butt">
      <rect x="-200.0931" y="381.5643" clip-path="url(#clipPath2)" fill="none" width="282" rx="24" ry="24" height="48"/>
      <text x="-113.3069" xml:space="preserve" y="395.7499" clip-path="url(#clipPath2)" font-family="sans-serif" stroke="none">FuzzyFoodQuerier</text>
      <text x="-181.094" xml:space="preserve" y="409.7186" clip-path="url(#clipPath2)" font-family="sans-serif" stroke="none"> - fuzzySearch(String name): [FoodJSON]</text>
      <text x="-146.761" xml:space="preserve" y="423.6874" clip-path="url(#clipPath2)" font-family="sans-serif" stroke="none"> - addFood(String, FoodJSON)</text>
    </g>
    <g fill="url(#linearGradient13)" text-rendering="geometricPrecision" shape-rendering="geometricPrecision" transform="matrix(1,0,0,1,669,-141)" stroke="url(#linearGradient13)">
      <rect x="-199.1179" y="560.1506" clip-path="url(#clipPath2)" width="280.0496" rx="24.2832" ry="24.2832" height="48.5664" stroke="none"/>
    </g>
    <g text-rendering="geometricPrecision" stroke-miterlimit="1.45" shape-rendering="geometricPrecision" transform="matrix(1,0,0,1,669,-141)" stroke-linecap="butt">
      <rect x="-199.1179" y="560.1506" clip-path="url(#clipPath2)" fill="none" width="280.0496" rx="24.2832" ry="24.2832" height="48.5664"/>
      <text x="-92.4241" xml:space="preserve" y="581.6037" clip-path="url(#clipPath2)" font-family="sans-serif" stroke="none">LogQuerier</text>
      <text x="-169.6184" xml:space="preserve" y="595.5724" clip-path="url(#clipPath2)" font-family="sans-serif" stroke="none"> - getUserLog(int user_id): [LogJSON]</text>
    </g>
    <g text-rendering="geometricPrecision" stroke-miterlimit="1.45" shape-rendering="geometricPrecision" transform="matrix(1,0,0,1,669,-141)" stroke-linecap="butt">
      <path fill="none" d="M87.5842 516.5815 L130.2021 514.1602 L130.2021 713.8881 L176.2729 713.8881" clip-path="url(#clipPath2)"/>
      <path d="M79.597 517.0352 L91.8613 521.3466 L88.5826 516.5248 L91.2941 511.3627 Z" clip-path="url(#clipPath2)" stroke="none"/>
      <path d="M184.2729 713.8881 L172.2729 708.8881 L175.2729 713.8881 L172.2729 718.8881 Z" clip-path="url(#clipPath2)" stroke="none"/>
    </g>
    <g transform="matrix(1,0,0,1,669,-141)" fill-opacity="0.502" fill="rgb(202,236,255)" text-rendering="geometricPrecision" shape-rendering="geometricPrecision" stroke="rgb(202,236,255)" stroke-opacity="0.502">
      <rect x="-653.7889" y="156.7469" clip-path="url(#clipPath2)" width="387.3609" rx="4" ry="4" height="581.8737" stroke="none"/>
    </g>
    <g fill="rgb(153,204,255)" text-rendering="geometricPrecision" shape-rendering="geometricPrecision" transform="matrix(1,0,0,1,669,-141)" stroke="rgb(153,204,255)">
      <rect x="-653.7889" width="387.3609" height="21.4609" y="156.7469" clip-path="url(#clipPath2)" stroke="none"/>
    </g>
    <g font-size="15px" stroke-linecap="butt" transform="matrix(1,0,0,1,669,-141)" text-rendering="geometricPrecision" font-family="sans-serif" shape-rendering="geometricPrecision" stroke-miterlimit="1.45">
      <text x="-298.1131" xml:space="preserve" y="172.6703" clip-path="url(#clipPath2)" stroke="none">SQL</text>
    </g>
    <g stroke-linecap="round" transform="matrix(1,0,0,1,669,-141)" stroke-dashoffset="2" fill="rgb(102,102,153)" text-rendering="geometricPrecision" shape-rendering="geometricPrecision" stroke-dasharray="0,4" stroke="rgb(102,102,153)" stroke-miterlimit="1.45">
      <rect x="-653.7889" y="156.7469" clip-path="url(#clipPath2)" fill="none" width="387.3609" rx="4" ry="4" height="581.8737"/>
    </g>
    <g fill="rgb(210,210,210)" text-rendering="geometricPrecision" shape-rendering="geometricPrecision" transform="matrix(1,0,0,1,669,-141) translate(4,4)" stroke="rgb(210,210,210)">
      <rect x="-437.863" width="162.435" height="146.7012" y="575.2079" clip-path="url(#clipPath3)" stroke="none"/>
    </g>
    <g fill="rgb(222,220,196)" text-rendering="geometricPrecision" shape-rendering="geometricPrecision" transform="matrix(1,0,0,1,669,-141)" stroke="rgb(222,220,196)">
      <rect x="-437.863" width="162.435" height="146.7012" y="575.2079" clip-path="url(#clipPath2)" stroke="none"/>
      <rect x="-437.863" y="575.2079" clip-path="url(#clipPath2)" fill="rgb(183,182,158)" width="162.435" height="21.4609" stroke="none"/>
    </g>
    <g font-size="15px" stroke-linecap="butt" transform="matrix(1,0,0,1,669,-141)" text-rendering="geometricPrecision" font-family="sans-serif" shape-rendering="geometricPrecision" stroke-miterlimit="1.45">
      <text x="-359.8401" xml:space="preserve" y="591.1312" clip-path="url(#clipPath2)" stroke="none">Preprocess</text>
      <rect fill="none" x="-437.863" width="162.435" height="146.7012" y="575.2079" clip-path="url(#clipPath2)"/>
    </g>
    <g fill="url(#linearGradient14)" text-rendering="geometricPrecision" shape-rendering="geometricPrecision" transform="matrix(1,0,0,1,669,-141)" stroke="url(#linearGradient14)">
      <path d="M-630.2979 278.4079 C-620.6079 204.2079 -316.9879 204.2079 -307.2979 278.4079 L-307.2979 501.0079 C-316.9879 575.2079 -620.6079 575.2079 -630.2979 501.0079 Z" stroke="none" clip-path="url(#clipPath2)"/>
    </g>
    <g text-rendering="geometricPrecision" stroke-miterlimit="1.45" shape-rendering="geometricPrecision" transform="matrix(1,0,0,1,669,-141)" stroke-linecap="butt">
      <path fill="none" d="M-630.2979 278.4079 C-620.6079 204.2079 -316.9879 204.2079 -307.2979 278.4079 L-307.2979 501.0079 C-316.9879 575.2079 -620.6079 575.2079 -630.2979 501.0079 Z" clip-path="url(#clipPath2)"/>
      <path fill="none" d="M-307.2979 278.4079 C-316.9879 352.6079 -620.6079 352.6079 -630.2979 278.4079" clip-path="url(#clipPath2)"/>
      <text x="-491.3155" xml:space="preserve" y="252.0772" clip-path="url(#clipPath2)" font-family="sans-serif" stroke="none">SQL DB</text>
    </g>
    <g fill="url(#linearGradient15)" text-rendering="geometricPrecision" shape-rendering="geometricPrecision" transform="matrix(1,0,0,1,669,-141)" stroke="url(#linearGradient15)">
      <rect x="-591.7503" width="253.4896" height="86.9792" y="272.217" clip-path="url(#clipPath2)" stroke="none"/>
    </g>
    <g text-rendering="geometricPrecision" stroke-miterlimit="1.45" shape-rendering="geometricPrecision" transform="matrix(1,0,0,1,669,-141)" stroke-linecap="butt">
      <rect fill="none" x="-591.7503" width="253.4896" height="86.9792" y="272.217" clip-path="url(#clipPath2)"/>
      <path fill="none" d="M-581.7502 272.217 L-581.7502 359.1962 M-591.7502 282.217 L-338.2607 282.217 M-581.7502 272.217 Z" clip-path="url(#clipPath2)"/>
      <text x="-508.0426" xml:space="preserve" y="298.9078" clip-path="url(#clipPath2)" font-family="sans-serif" stroke="none">Food-Nurtition</text>
      <text x="-578.5308" xml:space="preserve" y="312.8765" clip-path="url(#clipPath2)" font-family="sans-serif" stroke="none">&lt;id&gt;: [&lt;description&gt; , &lt;weight(g)&gt; ,</text>
      <text x="-556.8541" xml:space="preserve" y="326.8453" clip-path="url(#clipPath2)" font-family="sans-serif" stroke="none">&lt;measure&gt;, &lt;energy(kcal)&gt;, </text>
      <text x="-574.4732" xml:space="preserve" y="340.814" clip-path="url(#clipPath2)" font-family="sans-serif" stroke="none">&lt;Na(mg)&gt;, &lt;fatty_acids(g)&gt;, &lt;...&gt;]</text>
    </g>
    <g fill="url(#linearGradient16)" text-rendering="geometricPrecision" shape-rendering="geometricPrecision" transform="matrix(1,0,0,1,669,-141)" stroke="url(#linearGradient16)">
      <rect x="-590.9951" width="252.7344" height="86.9792" y="381.9527" clip-path="url(#clipPath2)" stroke="none"/>
    </g>
    <g text-rendering="geometricPrecision" stroke-miterlimit="1.45" shape-rendering="geometricPrecision" transform="matrix(1,0,0,1,669,-141)" stroke-linecap="butt">
      <rect fill="none" x="-590.9951" width="252.7344" height="86.9792" y="381.9527" clip-path="url(#clipPath2)"/>
      <path fill="none" d="M-580.9951 381.9527 L-580.9951 468.9319 M-590.9951 391.9527 L-338.2607 391.9527 M-580.9951 381.9527 Z" clip-path="url(#clipPath2)"/>
      <text x="-491.8242" xml:space="preserve" y="408.6435" clip-path="url(#clipPath2)" font-family="sans-serif" stroke="none">User-Info</text>
      <text x="-560.7919" xml:space="preserve" y="422.6122" clip-path="url(#clipPath2)" font-family="sans-serif" stroke="none">&lt;user_id&gt;:[&lt;age&gt;, &lt;gender&gt;, </text>
      <text x="-531.7206" xml:space="preserve" y="436.581" clip-path="url(#clipPath2)" font-family="sans-serif" stroke="none">&lt;weight&gt;, &lt;height&gt;, </text>
      <text x="-572.1826" xml:space="preserve" y="450.5497" clip-path="url(#clipPath2)" font-family="sans-serif" stroke="none">&lt;goal weight&gt;, &lt;due date&gt;, &lt;...&gt;]</text>
    </g>
    <g text-rendering="geometricPrecision" stroke-miterlimit="1.45" shape-rendering="geometricPrecision" transform="matrix(1,0,0,1,669,-141)" stroke-linecap="butt">
      <path fill="none" d="M-197.7831 335.6603 L-330.2993 325.7652" clip-path="url(#clipPath2)"/>
      <path d="M-338.2771 325.1695 L-326.6827 331.0492 L-329.3021 325.8397 L-325.9381 321.0769 Z" clip-path="url(#clipPath2)" stroke="none"/>
      <path fill="none" d="M-327.2978 438.972 L-203.9384 451.1254" clip-path="url(#clipPath2)"/>
      <path d="M-338.2448 437.8935 L-326.8908 445.0412 L-325.7143 433.099 Z" clip-path="url(#clipPath2)" stroke="none"/>
      <path d="M-195.9769 451.9097 L-207.4288 445.7573 L-204.9335 451.0273 L-208.4093 455.7091 Z" clip-path="url(#clipPath2)" stroke="none"/>
    </g>
    <g fill="rgb(210,210,210)" text-rendering="geometricPrecision" shape-rendering="geometricPrecision" transform="matrix(1,0,0,1,669,-141) translate(4,4)" stroke="rgb(210,210,210)">
      <rect x="-630.2979" width="162.435" height="146.7012" y="575.2079" clip-path="url(#clipPath3)" stroke="none"/>
    </g>
    <g fill="rgb(222,220,196)" text-rendering="geometricPrecision" shape-rendering="geometricPrecision" transform="matrix(1,0,0,1,669,-141)" stroke="rgb(222,220,196)">
      <rect x="-630.2979" width="162.435" height="146.7012" y="575.2079" clip-path="url(#clipPath2)" stroke="none"/>
      <rect x="-630.2979" y="575.2079" clip-path="url(#clipPath2)" fill="rgb(183,182,158)" width="162.435" height="21.4609" stroke="none"/>
    </g>
    <g font-size="15px" stroke-linecap="butt" transform="matrix(1,0,0,1,669,-141)" text-rendering="geometricPrecision" font-family="sans-serif" shape-rendering="geometricPrecision" stroke-miterlimit="1.45">
      <text x="-578.7595" xml:space="preserve" y="591.1312" clip-path="url(#clipPath2)" stroke="none">Fuzzy Searhch</text>
      <rect fill="none" x="-630.2979" width="162.435" height="146.7012" y="575.2079" clip-path="url(#clipPath2)"/>
    </g>
    <g fill="url(#linearGradient17)" text-rendering="geometricPrecision" shape-rendering="geometricPrecision" transform="matrix(1,0,0,1,669,-141)" stroke="url(#linearGradient17)">
      <path d="M-605.2979 611.6688 L-486.2979 611.6688 L-486.2979 640.67 L-615.2979 640.67 L-615.2979 621.6688 Z" stroke="none" clip-path="url(#clipPath2)"/>
    </g>
    <g text-rendering="geometricPrecision" stroke-miterlimit="1.45" shape-rendering="geometricPrecision" transform="matrix(1,0,0,1,669,-141)" stroke-linecap="butt">
      <path fill="none" d="M-605.2979 611.6688 L-486.2979 611.6688 L-486.2979 640.67 L-615.2979 640.67 L-615.2979 621.6688 Z" clip-path="url(#clipPath2)"/>
      <text x="-602.1553" xml:space="preserve" y="630.3237" clip-path="url(#clipPath2)" font-family="sans-serif" stroke="none">Fuzzy_Search.sql</text>
    </g>
    <g fill="url(#linearGradient18)" text-rendering="geometricPrecision" shape-rendering="geometricPrecision" transform="matrix(1,0,0,1,669,-141)" stroke="url(#linearGradient18)">
      <rect x="-615.2979" width="129" height="48" y="653.9091" clip-path="url(#clipPath2)" stroke="none"/>
    </g>
    <g text-rendering="geometricPrecision" stroke-miterlimit="1.45" shape-rendering="geometricPrecision" transform="matrix(1,0,0,1,669,-141)" stroke-linecap="butt">
      <rect fill="none" x="-615.2979" width="129" height="48" y="653.9091" clip-path="url(#clipPath2)"/>
      <path fill="none" d="M-605.2979 653.9091 L-605.2979 701.9091 M-615.2979 663.9091 L-486.2979 663.9091 M-605.2979 653.9091 Z" clip-path="url(#clipPath2)"/>
      <text x="-602.6124" xml:space="preserve" y="682.0634" clip-path="url(#clipPath2)" font-family="sans-serif" stroke="none">result temp table</text>
    </g>
    <g fill="url(#linearGradient19)" text-rendering="geometricPrecision" shape-rendering="geometricPrecision" transform="matrix(1,0,0,1,669,-141)" stroke="url(#linearGradient19)">
      <path d="M-410.7979 604.6688 L-291.7979 604.6688 L-291.7979 633.67 L-420.7979 633.67 L-420.7979 614.6688 Z" stroke="none" clip-path="url(#clipPath2)"/>
    </g>
    <g text-rendering="geometricPrecision" stroke-miterlimit="1.45" shape-rendering="geometricPrecision" transform="matrix(1,0,0,1,669,-141)" stroke-linecap="butt">
      <path fill="none" d="M-410.7979 604.6688 L-291.7979 604.6688 L-291.7979 633.67 L-420.7979 633.67 L-420.7979 614.6688 Z" clip-path="url(#clipPath2)"/>
      <text x="-386.7198" xml:space="preserve" y="623.3237" clip-path="url(#clipPath2)" font-family="sans-serif" stroke="none">Import.sql</text>
    </g>
    <g fill="url(#linearGradient20)" text-rendering="geometricPrecision" shape-rendering="geometricPrecision" transform="matrix(1,0,0,1,669,-141)" stroke="url(#linearGradient20)">
      <path d="M-411.1455 644.2889 L-292.1455 644.2889 L-292.1455 673.2902 L-421.1455 673.2902 L-421.1455 654.2889 Z" stroke="none" clip-path="url(#clipPath2)"/>
    </g>
    <g text-rendering="geometricPrecision" stroke-miterlimit="1.45" shape-rendering="geometricPrecision" transform="matrix(1,0,0,1,669,-141)" stroke-linecap="butt">
      <path fill="none" d="M-411.1455 644.2889 L-292.1455 644.2889 L-292.1455 673.2902 L-421.1455 673.2902 L-421.1455 654.2889 Z" clip-path="url(#clipPath2)"/>
      <text x="-400.1191" xml:space="preserve" y="662.9439" clip-path="url(#clipPath2)" font-family="sans-serif" stroke="none">Preprocess.sql</text>
    </g>
    <g fill="url(#linearGradient21)" text-rendering="geometricPrecision" shape-rendering="geometricPrecision" transform="matrix(1,0,0,1,669,-141)" stroke="url(#linearGradient21)">
      <rect x="-420.7979" width="128.6524" height="29.0012" y="683.9091" clip-path="url(#clipPath2)" stroke="none"/>
    </g>
    <g text-rendering="geometricPrecision" stroke-miterlimit="1.45" shape-rendering="geometricPrecision" transform="matrix(1,0,0,1,669,-141)" stroke-linecap="butt">
      <rect fill="none" x="-420.7979" width="128.6524" height="29.0012" y="683.9091" clip-path="url(#clipPath2)"/>
      <path fill="none" d="M-410.7979 683.9091 L-410.7979 712.9103 M-420.7979 693.9091 L-292.1455 693.9091 M-410.7979 683.9091 Z" clip-path="url(#clipPath2)"/>
      <text x="-388.4112" xml:space="preserve" y="702.564" clip-path="url(#clipPath2)" font-family="sans-serif" stroke="none">source.csv</text>
    </g>
    <g fill="url(#linearGradient22)" text-rendering="geometricPrecision" shape-rendering="geometricPrecision" transform="matrix(1,0,0,1,669,-141)" stroke="url(#linearGradient22)">
      <path d="M-120.2607 737.0606 C-140.5651 723.6206 -120.2607 711.6206 -86.9615 720.2606 C-86.9615 711.6206 -31.7336 711.6206 -31.7336 720.2606 C1.5655 711.6206 21.8699 723.6206 1.5655 734.1806 C21.8699 747.6206 1.5655 759.6206 -23.6119 750.9807 C-31.7336 759.6206 -86.9615 759.6206 -78.8398 750.9807 C-120.2607 759.6206 -140.5651 747.6206 -120.2607 737.0606 Z" stroke="none" clip-path="url(#clipPath2)"/>
    </g>
    <g text-rendering="geometricPrecision" stroke-miterlimit="1.45" shape-rendering="geometricPrecision" transform="matrix(1,0,0,1,669,-141)" stroke-linecap="butt">
      <path fill="none" d="M-120.2607 737.0606 C-140.5651 723.6206 -120.2607 711.6206 -86.9615 720.2606 C-86.9615 711.6206 -31.7336 711.6206 -31.7336 720.2606 C1.5655 711.6206 21.8699 723.6206 1.5655 734.1806 C21.8699 747.6206 1.5655 759.6206 -23.6119 750.9807 C-31.7336 759.6206 -86.9615 759.6206 -78.8398 750.9807 C-120.2607 759.6206 -140.5651 747.6206 -120.2607 737.0606 Z" clip-path="url(#clipPath2)"/>
      <text x="-116.9101" xml:space="preserve" y="739.7749" clip-path="url(#clipPath2)" font-family="sans-serif" stroke="none">Food-Nutrition APIs</text>
    </g>
    <g text-rendering="geometricPrecision" stroke-miterlimit="1.45" stroke-dasharray="6,2" shape-rendering="geometricPrecision" transform="matrix(1,0,0,1,669,-141)" stroke-linecap="butt">
      <path fill="none" d="M-197.8712 415.6522 L-237.7901 418.5539 L-237.7901 551.5539 L-550.7979 551.5539 L-550.7979 596.6325" clip-path="url(#clipPath2)"/>
      <path fill="white" d="M-550.7979 611.6325 L-544.7979 595.6325 L-556.7979 595.6325 Z" clip-path="url(#clipPath2)" stroke="none"/>
      <path fill="none" stroke-dasharray="none" d="M-550.7979 611.6325 L-544.7979 595.6325 L-556.7979 595.6325 Z" clip-path="url(#clipPath2)"/>
      <path fill="none" stroke-dasharray="none" d="M-338.303 315.7066 L-283.863 315.7066 L-283.863 504.9091 L-446.863 504.9091 L-446.863 677.9091 L-478.3207 677.9091" clip-path="url(#clipPath2)"/>
      <path stroke-dasharray="none" d="M-486.3207 677.9091 L-474.3207 682.9091 L-477.3207 677.9091 L-474.3207 672.9091 Z" clip-path="url(#clipPath2)" stroke="none"/>
      <path fill="none" stroke-dasharray="none" d="M-550.7979 701.8907 L-550.7979 729.5539 L-247.7901 729.5539 L-247.7901 395.4051 L-206.8997 397.6066" clip-path="url(#clipPath2)"/>
      <path stroke-dasharray="none" d="M-198.9113 398.0367 L-210.6251 392.3988 L-207.8982 397.5528 L-211.1627 402.3843 Z" clip-path="url(#clipPath2)" stroke="none"/>
      <path fill="none" d="M-175.815 652.5234 L-277.0832 633.8086" clip-path="url(#clipPath2)"/>
      <path fill="white" d="M-291.8335 631.0827 L-277.1902 639.8904 L-275.0095 628.0902 Z" clip-path="url(#clipPath2)" stroke="none"/>
      <path fill="none" stroke-dasharray="none" d="M-291.8335 631.0827 L-277.1902 639.8904 L-275.0095 628.0902 Z" clip-path="url(#clipPath2)"/>
      <path fill="none" d="M-175.8788 668.0666 L-277.1876 662.8674" clip-path="url(#clipPath2)"/>
      <path fill="white" d="M-292.1679 662.0986 L-276.4965 668.9108 L-275.8814 656.9265 Z" clip-path="url(#clipPath2)" stroke="none"/>
      <path fill="none" stroke-dasharray="none" d="M-292.1679 662.0986 L-276.4965 668.9108 L-275.8814 656.9265 Z" clip-path="url(#clipPath2)"/>
      <path fill="none" stroke-dasharray="none" d="M-175.8832 692.1942 L-215.7979 698.4097 L-284.1451 698.4097" clip-path="url(#clipPath2)"/>
      <path stroke-dasharray="none" d="M-292.1451 698.4097 L-280.1451 703.4097 L-283.1451 698.4097 L-280.1451 693.4097 Z" clip-path="url(#clipPath2)" stroke="none"/>
      <path fill="none" stroke-dasharray="none" d="M-420.7582 698.4097 L-454.7979 698.4097 L-454.7979 504.9091 L-616.7979 504.9091 L-616.7979 348.8759 L-599.5989 345.1176" clip-path="url(#clipPath2)"/>
      <path stroke-dasharray="none" d="M-591.7833 343.4098 L-604.5741 341.0869 L-600.5759 345.3311 L-602.4393 350.8563 Z" clip-path="url(#clipPath2)" stroke="none"/>
      <path fill="none" stroke-dasharray="none" d="M-59.3476 713.7632 L-59.3476 709.9337" clip-path="url(#clipPath2)"/>
      <path stroke-dasharray="none" d="M-59.3476 701.9337 L-64.3476 713.9337 L-59.3476 710.9337 L-54.3476 713.9337 Z" clip-path="url(#clipPath2)" stroke="none"/>
    </g>
  </g>
</svg>
