<?xml version="1.0" encoding="UTF-8"?><svg xmlns="http://www.w3.org/2000/svg" xmlns:xlink="http://www.w3.org/1999/xlink" fill-opacity="1" color-rendering="auto" color-interpolation="auto" text-rendering="auto" stroke="black" stroke-linecap="square" width="380" stroke-miterlimit="10" shape-rendering="auto" stroke-opacity="1" fill="black" stroke-dasharray="none" font-weight="normal" stroke-width="1" height="235" font-family="'Dialog'" font-style="normal" stroke-linejoin="miter" font-size="12px" stroke-dashoffset="0" image-rendering="auto">
  <!--Generated by ySVG 2.5-->
  <defs id="genericDefs"/>
  <g>
    <defs id="defs1">
      <linearGradient x1="849" gradientUnits="userSpaceOnUse" x2="929" y1="547" y2="597" id="linearGradient1" spreadMethod="reflect">
        <stop stop-opacity="1" stop-color="rgb(255,153,204)" offset="0%"/>
        <stop stop-opacity="1" stop-color="rgb(255,153,204)" offset="100%"/>
      </linearGradient>
      <linearGradient x1="859" gradientUnits="userSpaceOnUse" x2="919" y1="444" y2="484" id="linearGradient2" spreadMethod="reflect">
        <stop stop-opacity="1" stop-color="rgb(255,255,153)" offset="0%"/>
        <stop stop-opacity="1" stop-color="rgb(255,255,153)" offset="100%"/>
      </linearGradient>
      <linearGradient x1="672" gradientUnits="userSpaceOnUse" x2="752" y1="552" y2="592" id="linearGradient3" spreadMethod="reflect">
        <stop stop-opacity="1" stop-color="rgb(232,238,247)" offset="0%"/>
        <stop stop-opacity="1" stop-color="rgb(183,201,227)" offset="100%"/>
      </linearGradient>
      <linearGradient x1="672" gradientUnits="userSpaceOnUse" x2="752" y1="444" y2="484" id="linearGradient4" spreadMethod="reflect">
        <stop stop-opacity="1" stop-color="rgb(232,238,247)" offset="0%"/>
        <stop stop-opacity="1" stop-color="rgb(183,201,227)" offset="100%"/>
      </linearGradient>
      <clipPath clipPathUnits="userSpaceOnUse" id="clipPath1">
        <path d="M0 0 L380 0 L380 235 L0 235 L0 0 Z"/>
      </clipPath>
      <clipPath clipPathUnits="userSpaceOnUse" id="clipPath2">
        <path d="M579 392 L959 392 L959 627 L579 627 L579 392 Z"/>
      </clipPath>
    </defs>
    <g fill="white" text-rendering="geometricPrecision" shape-rendering="geometricPrecision" transform="translate(-579,-392)" stroke="white">
      <rect x="579" width="380" height="235" y="392" clip-path="url(#clipPath2)" stroke="none"/>
    </g>
    <g fill="rgb(245,245,245)" text-rendering="geometricPrecision" shape-rendering="geometricPrecision" transform="matrix(1,0,0,1,-579,-392)" stroke="rgb(245,245,245)">
      <rect x="594" y="407.5391" clip-path="url(#clipPath2)" width="350" rx="4" ry="4" height="204.4609" stroke="none"/>
      <rect x="594" y="407.5391" clip-path="url(#clipPath2)" fill="rgb(235,235,235)" width="350" height="21.4609" stroke="none"/>
    </g>
    <g font-size="15px" stroke-linecap="butt" transform="matrix(1,0,0,1,-579,-392)" text-rendering="geometricPrecision" font-family="sans-serif" shape-rendering="geometricPrecision" stroke-miterlimit="1.45">
      <text x="886.6362" xml:space="preserve" y="423.4624" clip-path="url(#clipPath2)" stroke="none">Legend</text>
      <rect x="594" y="407.5391" clip-path="url(#clipPath2)" fill="none" width="350" stroke-dasharray="6,2" rx="4" ry="4" height="204.4609"/>
    </g>
    <g fill="url(#linearGradient1)" text-rendering="geometricPrecision" shape-rendering="geometricPrecision" transform="matrix(1,0,0,1,-579,-392)" stroke="url(#linearGradient1)">
      <path d="M859 573.5 C849 559.5 859 547 875.4 556 C875.4 547 902.6 547 902.6 556 C919 547 929 559.5 919 570.5 C929 584.5 919 597 906.6 588 C902.6 597 875.4 597 879.4 588 C859 597 849 584.5 859 573.5 Z" stroke="none" clip-path="url(#clipPath2)"/>
    </g>
    <g text-rendering="geometricPrecision" stroke-miterlimit="1.45" shape-rendering="geometricPrecision" transform="matrix(1,0,0,1,-579,-392)" stroke-linecap="butt">
      <path fill="none" d="M859 573.5 C849 559.5 859 547 875.4 556 C875.4 547 902.6 547 902.6 556 C919 547 929 559.5 919 570.5 C929 584.5 919 597 906.6 588 C902.6 597 875.4 597 879.4 588 C859 597 849 584.5 859 573.5 Z" clip-path="url(#clipPath2)"/>
      <text x="876.3818" xml:space="preserve" y="576.1543" clip-path="url(#clipPath2)" font-family="sans-serif" stroke="none">APIs</text>
    </g>
    <g fill="url(#linearGradient2)" text-rendering="geometricPrecision" shape-rendering="geometricPrecision" transform="matrix(1,0,0,1,-579,-392)" stroke="url(#linearGradient2)">
      <path d="M859 452 C860.8 444 917.2 444 919 452 L919 476 C917.2 484 860.8 484 859 476 Z" stroke="none" clip-path="url(#clipPath2)"/>
    </g>
    <g text-rendering="geometricPrecision" stroke-miterlimit="1.45" shape-rendering="geometricPrecision" transform="matrix(1,0,0,1,-579,-392)" stroke-linecap="butt">
      <path fill="none" d="M859 452 C860.8 444 917.2 444 919 452 L919 476 C917.2 484 860.8 484 859 476 Z" clip-path="url(#clipPath2)"/>
      <path fill="none" d="M919 452 C917.2 460 860.8 460 859 452" clip-path="url(#clipPath2)"/>
      <text x="880.2637" xml:space="preserve" y="468.1543" clip-path="url(#clipPath2)" font-family="sans-serif" stroke="none">DB</text>
    </g>
    <g fill="url(#linearGradient3)" text-rendering="geometricPrecision" shape-rendering="geometricPrecision" transform="matrix(1,0,0,1,-579,-392)" stroke="url(#linearGradient3)">
      <path d="M672 552 L752 552 L752 592 L672 592 Z" stroke="none" clip-path="url(#clipPath2)"/>
    </g>
    <g text-rendering="geometricPrecision" stroke-miterlimit="1.45" shape-rendering="geometricPrecision" transform="matrix(1,0,0,1,-579,-392)" stroke-linecap="butt">
      <path fill="none" d="M672 552 L752 552 L752 592 L672 592 Z" clip-path="url(#clipPath2)"/>
      <text x="676.3779" xml:space="preserve" y="576.1543" clip-path="url(#clipPath2)" font-family="sans-serif" stroke="none">HelperClass</text>
    </g>
    <g fill="url(#linearGradient4)" text-rendering="geometricPrecision" shape-rendering="geometricPrecision" transform="matrix(1,0,0,1,-579,-392)" stroke="url(#linearGradient4)">
      <rect x="672" y="444" clip-path="url(#clipPath2)" width="80" rx="20" ry="20" height="40" stroke="none"/>
    </g>
    <g text-rendering="geometricPrecision" stroke-miterlimit="1.45" shape-rendering="geometricPrecision" transform="matrix(1,0,0,1,-579,-392)" stroke-linecap="butt">
      <rect x="672" y="444" clip-path="url(#clipPath2)" fill="none" width="80" rx="20" ry="20" height="40"/>
      <text x="681.8916" xml:space="preserve" y="468.1543" clip-path="url(#clipPath2)" font-family="sans-serif" stroke="none">MainClass</text>
    </g>
    <g text-rendering="geometricPrecision" stroke-miterlimit="1.45" shape-rendering="geometricPrecision" transform="matrix(1,0,0,1,-579,-392)" stroke-linecap="butt">
      <path fill="none" d="M687.3877 483.4517 L650 513 L685.1646 546.4631" clip-path="url(#clipPath2)"/>
      <path d="M690.96 551.978 L685.7137 540.0836 L684.4402 545.7738 L678.8201 547.3278 Z" clip-path="url(#clipPath2)" stroke="none"/>
      <text x="602.5263" xml:space="preserve" y="493.6175" clip-path="url(#clipPath2)" font-family="sans-serif" stroke="none">data_flow</text>
      <path fill="none" stroke-dasharray="6,2" d="M736.4067 483.5254 L777 516 L746.5648 542.2211" clip-path="url(#clipPath2)"/>
      <path fill="white" stroke-dasharray="6,2" d="M735.2007 552.0117 L751.2386 546.114 L743.4062 537.0227 Z" clip-path="url(#clipPath2)" stroke="none"/>
      <path fill="none" d="M735.2007 552.0117 L751.2386 546.114 L743.4062 537.0227 Z" clip-path="url(#clipPath2)"/>
      <text x="759.4537" xml:space="preserve" y="496.7282" clip-path="url(#clipPath2)" font-family="sans-serif" stroke="none">control_flow</text>
    </g>
  </g>
</svg>
