<?xml version="1.0" encoding="utf-8" ?>
<!DOCTYPE svg PUBLIC "-//W3C//DTD SVG 1.1//EN" "http://www.w3.org/Graphics/SVG/1.1/DTD/svg11.dtd">
<svg height="375" version="1.1" width="707" xmlns="http://www.w3.org/2000/svg">
<rect fill="#00ff" height="46" rx="16" ry="16" stroke="#00ff" stroke-width="1" width="114" x="102" y="14"/>
<rect fill="#ffffff" height="46" rx="16" ry="16" stroke="#000000" stroke-width="1" width="114" x="102" y="14"/>
<rect fill="#ffffff" height="44" rx="16" ry="16" stroke="#ffffff" stroke-width="1" width="112" x="103" y="15"/>
<text font-family="Lucida Grande" font-size="13" x="125" y="28">
ParseMenu</text>
<line fill="#000000" stroke="#000000" stroke-width="1" x1="102" x2="215" y1="38" y2="38"/>
<polyline fill="none" points="406,222 215,59" stroke="#333399" stroke-width="1"/>
<line fill="#333399" stroke="#333399" stroke-width="1" x1="228" x2="215" y1="61" y2="59"/>
<line fill="#333399" stroke="#333399" stroke-width="1" x1="219" x2="215" y1="72" y2="59"/>
<text font-family="Lucida Grande" font-size="13" x="132" y="132">
recommendationRequest</text>
<rect fill="#00ff" height="104" rx="16" ry="16" stroke="#00ff" stroke-width="1" width="114" x="342" y="14"/>
<rect fill="#ffffff" height="104" rx="16" ry="16" stroke="#000000" stroke-width="1" width="114" x="342" y="14"/>
<rect fill="#ffffff" height="102" rx="16" ry="16" stroke="#ffffff" stroke-width="1" width="112" x="343" y="15"/>
<text font-family="Lucida Grande" font-size="13" x="372" y="28">
AskMeal</text>
<line fill="#000000" stroke="#000000" stroke-width="1" x1="342" x2="455" y1="38" y2="38"/>
<text font-family="Lucida Grande" font-size="13" x="344" y="51">
- Retrieve food</text>
<text font-family="Lucida Grande" font-size="13" x="344" y="67">
- Confirm food</text>
<text font-family="Lucida Grande" font-size="13" x="344" y="83">
- Create food</text>
<text font-family="Lucida Grande" font-size="13" x="344" y="99">
- Ask size</text>
<polyline fill="none" points="215,46 342,46" stroke="#000000" stroke-width="1"/>
<line fill="#000000" stroke="#000000" stroke-width="1" x1="330" x2="342" y1="53" y2="46"/>
<line fill="#000000" stroke="#000000" stroke-width="1" x1="330" x2="342" y1="39" y2="46"/>
<text font-family="Lucida Grande" font-size="13" x="234" y="41">
menuMessage</text>
<rect fill="#00ff" height="88" rx="16" ry="16" stroke="#00ff" stroke-width="1" width="125" x="566" y="14"/>
<rect fill="#ffffff" height="88" rx="16" ry="16" stroke="#000000" stroke-width="1" width="125" x="566" y="14"/>
<rect fill="#ffffff" height="86" rx="16" ry="16" stroke="#ffffff" stroke-width="1" width="123" x="567" y="15"/>
<text font-family="Lucida Grande" font-size="13" x="590" y="28">
Recommend</text>
<line fill="#000000" stroke="#000000" stroke-width="1" x1="566" x2="690" y1="38" y2="38"/>
<text font-family="Lucida Grande" font-size="13" x="568" y="51">
- FoodNutrition</text>
<text font-family="Lucida Grande" font-size="13" x="568" y="67">
- UserInfo</text>
<text font-family="Lucida Grande" font-size="13" x="568" y="83">
- Recommendation</text>
<polyline fill="none" points="455,46 566,46" stroke="#000000" stroke-width="1"/>
<line fill="#000000" stroke="#000000" stroke-width="1" x1="554" x2="566" y1="53" y2="46"/>
<line fill="#000000" stroke="#000000" stroke-width="1" x1="554" x2="566" y1="39" y2="46"/>
<text font-family="Lucida Grande" font-size="13" x="471" y="41">
confirmMeal</text>
<rect fill="#00ff" height="78" rx="16" ry="16" stroke="#00ff" stroke-width="1" width="100" x="590" y="238"/>
<rect fill="#ffffff" height="78" rx="16" ry="16" stroke="#000000" stroke-width="1" width="100" x="590" y="238"/>
<rect fill="#ffffff" height="76" rx="16" ry="16" stroke="#ffffff" stroke-width="1" width="98" x="591" y="239"/>
<text font-family="Lucida Grande" font-size="13" x="604" y="252">
RecordMeal</text>
<line fill="#000000" stroke="#000000" stroke-width="1" x1="590" x2="689" y1="262" y2="262"/>
<text font-family="Lucida Grande" font-size="13" x="592" y="275">
- Retrieve food</text>
<text font-family="Lucida Grande" font-size="13" x="592" y="291">
- Confirm food</text>
<text font-family="Lucida Grande" font-size="13" x="592" y="307">
- Ask size</text>
<polyline fill="none" points="638,101 638,238" stroke="#000000" stroke-width="1"/>
<line fill="#000000" stroke="#000000" stroke-width="1" x1="631" x2="638" y1="226" y2="238"/>
<line fill="#000000" stroke="#000000" stroke-width="1" x1="645" x2="638" y1="226" y2="238"/>
<text font-family="Lucida Grande" font-size="13" x="640" y="174">
Timeout</text>
<rect fill="#00ff" height="46" rx="16" ry="16" stroke="#00ff" stroke-width="1" width="81" x="94" y="182"/>
<rect fill="#ffffff" height="46" rx="16" ry="16" stroke="#000000" stroke-width="1" width="81" x="94" y="182"/>
<rect fill="#ffffff" height="44" rx="16" ry="16" stroke="#ffffff" stroke-width="1" width="79" x="95" y="183"/>
<text font-family="Lucida Grande" font-size="13" x="100" y="196">
InitialInput</text>
<line fill="#000000" stroke="#000000" stroke-width="1" x1="94" x2="174" y1="206" y2="206"/>
<polyline fill="none" points="174,222 406,222" stroke="#000000" stroke-width="1"/>
<line fill="#000000" stroke="#000000" stroke-width="1" x1="394" x2="406" y1="229" y2="222"/>
<line fill="#000000" stroke="#000000" stroke-width="1" x1="394" x2="406" y1="215" y2="222"/>
<text font-family="Lucida Grande" font-size="13" x="242" y="217">
userInitialInput</text>
<rect fill="#00ff" height="72" rx="16" ry="16" stroke="#00ff" stroke-width="1" width="164" x="14" y="278"/>
<rect fill="#ffffff" height="72" rx="16" ry="16" stroke="#000000" stroke-width="1" width="164" x="14" y="278"/>
<rect fill="#ffffff" height="70" rx="16" ry="16" stroke="#ffffff" stroke-width="1" width="162" x="15" y="279"/>
<text font-family="Lucida Grande" font-size="13" x="66" y="292">
Feedback</text>
<line fill="#000000" stroke="#000000" stroke-width="1" x1="14" x2="177" y1="302" y2="302"/>
<text font-family="Lucida Grande" font-size="13" x="16" y="315">
- Ask for which feedback</text>
<text font-family="Lucida Grande" font-size="13" x="16" y="331">
- Generate feedback</text>
<polyline fill="none" points="406,283 177,283" stroke="#000000" stroke-width="1"/>
<line fill="#000000" stroke="#000000" stroke-width="1" x1="189" x2="177" y1="276" y2="283"/>
<line fill="#000000" stroke="#000000" stroke-width="1" x1="189" x2="177" y1="290" y2="283"/>
<text font-family="Lucida Grande" font-size="13" x="255" y="304">
feedbackRequest</text>
<polyline fill="none" points="590,262 492,262" stroke="#000000" stroke-width="1"/>
<line fill="#000000" stroke="#000000" stroke-width="1" x1="504" x2="492" y1="255" y2="262"/>
<line fill="#000000" stroke="#000000" stroke-width="1" x1="504" x2="492" y1="269" y2="262"/>
<text font-family="Lucida Grande" font-size="13" x="502" y="257">
confirmMeal</text>
<polyline fill="none" points="177,342 286,342 406,283" stroke="#000000" stroke-width="1"/>
<line fill="#000000" stroke="#000000" stroke-width="1" x1="398" x2="406" y1="294" y2="283"/>
<line fill="#000000" stroke="#000000" stroke-width="1" x1="392" x2="406" y1="282" y2="283"/>
<text font-family="Lucida Grande" font-size="13" x="254" y="357">
sendFeedback</text>
<rect fill="#00ff" height="62" rx="16" ry="16" stroke="#00ff" stroke-width="1" width="87" x="406" y="222"/>
<rect fill="#ffffff" height="62" rx="16" ry="16" stroke="#000000" stroke-width="1" width="87" x="406" y="222"/>
<rect fill="#ffffff" height="60" rx="16" ry="16" stroke="#ffffff" stroke-width="1" width="85" x="407" y="223"/>
<text font-family="Lucida Grande" font-size="13" x="438" y="236">
Idle</text>
<line fill="#000000" stroke="#000000" stroke-width="1" x1="406" x2="492" y1="246" y2="246"/>
<text font-family="Lucida Grande" font-size="13" x="408" y="259">
- Initial state</text>
<text font-family="Lucida Grande" font-size="13" x="408" y="275">
- End state</text>
<polyline fill="none" points="406,262 206,262 174,227" stroke="#000000" stroke-width="1"/>
<line fill="#000000" stroke="#000000" stroke-width="1" x1="187" x2="174" y1="231" y2="227"/>
<line fill="#000000" stroke="#000000" stroke-width="1" x1="176" x2="174" y1="240" y2="227"/>
<text font-family="Lucida Grande" font-size="13" x="224" y="257">
InitialInputRequest</text>
</svg>
